<svg width="136" height="20" fill="none" xmlns="http://www.w3.org/2000/svg"><path d="M0 17.5h2.476V20H0v-2.5z" fill="#E93324"/><path d="M0 0h2.476v17.5H0V0zm4.952 0H7.43v20H4.952V0zm4.953 0h2.476v20H9.905V0zm4.952 0h2.476v20h-2.476V0zm4.953 8.125h2.476v3.75h-2.477v-3.75z" fill="#F7CD46"/><path d="M38.83 17.714a7.906 7.906 0 01-2.973-.537 6.738 6.738 0 01-2.34-1.582 7.054 7.054 0 01-1.582-2.451 9.995 9.995 0 010-6.659 6.943 6.943 0 014.08-4.064 8.478 8.478 0 013.053-.538 9.236 9.236 0 012.467.285 10.09 10.09 0 011.898.727l-.57 1.787a8.177 8.177 0 00-1.724-.885 6.69 6.69 0 00-2.261-.348 4.855 4.855 0 00-3.717 1.676 6.026 6.026 0 00-1.138 2.009 8.175 8.175 0 00-.427 2.736 8.462 8.462 0 00.395 2.673c.228.725.6 1.397 1.091 1.977a4.551 4.551 0 001.677 1.217 5.519 5.519 0 002.182.427 6.323 6.323 0 002.009-.316 9.032 9.032 0 001.771-.838l.554 1.344a6.104 6.104 0 01-1.772.933c-.86.295-1.764.44-2.672.427zM47.576 1.44v16.053h-1.882V1.44h1.882zm4.065 3.226a1.123 1.123 0 01-1.202-1.17c-.011-.32.102-.632.317-.87a1.25 1.25 0 011.74 0c.22.235.34.547.331.87a1.14 1.14 0 01-.332.838 1.17 1.17 0 01-.854.332zm.95 1.677v11.07h-1.867V6.343h1.882-.016zm7.985 11.371a5.978 5.978 0 01-2.167-.395 4.87 4.87 0 01-1.755-1.139 5.455 5.455 0 01-1.17-1.819 7.085 7.085 0 010-4.87 5.3 5.3 0 011.201-1.82 5.046 5.046 0 011.85-1.154 6.326 6.326 0 012.23-.395 7.4 7.4 0 011.788.205c.47.108.92.295 1.328.554l-.6 1.66a6.328 6.328 0 00-1.25-.743 3.669 3.669 0 00-1.455-.253 3.605 3.605 0 00-1.392.269 3.164 3.164 0 00-1.155.822c-.344.393-.607.85-.775 1.345a5.537 5.537 0 00-.3 1.898 4.428 4.428 0 001.044 3.163 3.796 3.796 0 002.83 1.06 4.744 4.744 0 002.563-.823l.427 1.392c-.424.317-.9.557-1.408.711a6.136 6.136 0 01-1.834.332zM68.025 1.44v16.053h-1.913V1.44h1.913zm4.903 16.053l-4.65-5.946 4.587-5.188h1.96l-4.538 4.966 4.855 6.168h-2.214zm14.344-6.833h-7.907v6.817h-2.04V2.104h2.04v7.023h7.907V2.104h2.04v15.389h-2.04V10.66zm10.092 7.054a5.518 5.518 0 01-2.056-.395 4.918 4.918 0 01-1.709-1.123 5.441 5.441 0 01-1.154-1.819 7.276 7.276 0 010-4.934 5.316 5.316 0 011.154-1.803 4.999 4.999 0 011.709-1.123 5.52 5.52 0 012.055-.395c.71 0 1.413.133 2.072.395a5.093 5.093 0 011.724 1.123 5.352 5.352 0 011.186 1.803 7.1 7.1 0 010 4.934 5.463 5.463 0 01-1.107 1.819c-.49.49-1.077.872-1.724 1.123a5.614 5.614 0 01-2.15.395zm0-1.439a3.75 3.75 0 001.296-.237 2.83 2.83 0 001.123-.76c.353-.395.622-.857.791-1.36a6.007 6.007 0 00.301-2.008 5.905 5.905 0 00-.301-2.009 3.926 3.926 0 00-.79-1.344c-.308-.34-.693-.6-1.124-.76a3.559 3.559 0 00-2.562 0 2.878 2.878 0 00-1.091.76c-.348.39-.612.848-.775 1.344a6.103 6.103 0 00-.285 2.009c-.016.68.08 1.36.285 2.008.161.503.425.966.775 1.36.3.336.673.596 1.091.76a3.56 3.56 0 001.266.237zm13.696.791a4.258 4.258 0 01-2.452.649 3.397 3.397 0 01-2.499-.95 3.943 3.943 0 01-.949-2.91V6.344h1.898v7.513c-.009.375.045.749.158 1.107.087.27.239.515.443.711.187.18.415.31.665.38.267.076.544.114.822.11a3.16 3.16 0 002.008-.6 4.732 4.732 0 001.297-1.582v-7.64h1.882v11.071h-1.66l-.174-1.993a3.961 3.961 0 01-1.439 1.645zm9.33.648c-.474.03-.95.03-1.424 0a8.59 8.59 0 01-1.059-.205 5.114 5.114 0 01-.807-.27 5.609 5.609 0 01-.632-.331l.616-1.582c.139.113.287.214.443.3.229.129.467.24.712.333.313.123.635.218.965.285.39.076.788.113 1.186.11a2.959 2.959 0 001.819-.474 1.577 1.577 0 00.616-1.313 1.37 1.37 0 00-.506-1.123 5.3 5.3 0 00-1.755-.79l-1.36-.46a4.75 4.75 0 01-1.155-.6 2.843 2.843 0 01-.822-.918 2.783 2.783 0 01-.317-1.391 2.66 2.66 0 011.092-2.325 5.107 5.107 0 012.989-.76 8.937 8.937 0 011.977.19c.456.095.902.238 1.328.427l-.443 1.582a10.542 10.542 0 00-1.107-.474 4.82 4.82 0 00-1.676-.253 3.733 3.733 0 00-1.724.332 1.253 1.253 0 00-.648 1.217c-.005.243.067.481.205.68.143.2.326.367.538.49.249.151.514.273.791.364l.949.285 1.281.427c.408.148.792.355 1.138.617a2.751 2.751 0 011.123 2.372c.026.55-.1 1.098-.363 1.582a3.18 3.18 0 01-.965 1.044 4.119 4.119 0 01-1.376.6 6.851 6.851 0 01-1.629.032zm15.263-1.186a4.747 4.747 0 01-1.581.839 6.566 6.566 0 01-2.167.332 5.3 5.3 0 01-4.08-1.582 6.043 6.043 0 01-1.424-4.286 6.922 6.922 0 01.396-2.42 5.41 5.41 0 011.091-1.818 4.6 4.6 0 011.582-1.14 5.28 5.28 0 012.024-.394 5.057 5.057 0 012.024.395 3.652 3.652 0 011.487 1.154c.411.56.683 1.212.791 1.898a7.923 7.923 0 010 2.626h-7.528c.084 2.646 1.333 3.97 3.748 3.97a4.915 4.915 0 001.708-.27 6.763 6.763 0 001.392-.695l.537 1.391zm-4.096-9.078a2.8 2.8 0 00-2.04.854 4.293 4.293 0 00-1.076 2.562h5.647a3.447 3.447 0 00-.586-2.578 2.416 2.416 0 00-1.945-.838z" fill="#231F20"/></svg>