<svg width="127" height="32" fill="none" xmlns="http://www.w3.org/2000/svg"><path d="M23.098 7.393A11.112 11.112 0 008.233 23.91c1.036.931 1.915 1.384 2.696 1.384 1.502 0 2.624-1.68 4.074-3.798a33.796 33.796 0 012.893-3.857 34.702 34.702 0 013.522-3.28c1.863-1.568 3.326-2.801 3.352-4.186.014-.84-.537-1.751-1.672-2.781zm-4.841 6.658a17.666 17.666 0 00-2.008 1.83 19 19 0 00-1.64 2.23c-.741 1.123-1.266 1.93-1.968 1.93a.997.997 0 01-.656-.296 5.503 5.503 0 017.36-8.18.957.957 0 01.38.748c-.038.564-.629 1.056-1.469 1.738z" fill="#80BC00"/><path d="M15.665 0a15.658 15.658 0 10-.013 31.317A15.658 15.658 0 0015.665 0zm9.873 24.54a13.29 13.29 0 01-18.762.985 13.382 13.382 0 1119.024-1.28l-.262.296z" fill="#80BC00"/><path d="M38.599 8.823a4.715 4.715 0 014.703-4.75h.131a5.025 5.025 0 013.608 1.26L45.77 6.868a3.386 3.386 0 00-2.421-.964 2.762 2.762 0 00-2.624 2.86 2.748 2.748 0 002.578 2.906h.203a3.215 3.215 0 001.903-.55V9.84h-2.034V8.102h3.989v3.988a5.976 5.976 0 01-3.936 1.456 4.591 4.591 0 01-4.822-4.362 3.53 3.53 0 01-.006-.36zm11.296-4.618h4.198a3.667 3.667 0 012.677.931 2.874 2.874 0 01.793 2.08 2.833 2.833 0 01-1.968 2.847l2.25 3.28h-2.361l-1.968-2.939h-1.6v2.939h-2.021V4.205zm4.067 4.46c.984 0 1.548-.524 1.548-1.311 0-.866-.603-1.312-1.587-1.312h-2.008v2.624h2.047zm5.963-4.46h6.927v1.797h-4.92v1.87h4.33v1.797h-4.33v1.929h4.986v1.797h-6.993v-9.19zm9.407 0h6.927v1.797h-4.92v1.87h4.33v1.797h-4.33v1.929h4.986v1.797h-6.993v-9.19zm9.394 0h1.863l4.323 5.635V4.205h1.968v9.184h-1.72L80.695 7.55v5.838h-1.968V4.205zm10.942 0h3.752c2.19 0 3.516 1.312 3.516 3.175 0 2.125-1.653 3.228-3.713 3.228h-1.535v2.755h-2.02V4.205zm3.62 4.631a1.417 1.417 0 001.588-1.233 1.292 1.292 0 000-.157c0-.906-.656-1.391-1.64-1.391h-1.561v2.808l1.614-.027zm5.616-4.631h2.02v7.347h4.592v1.837h-6.612V4.205zm8.246 5.248V4.205h2.02V9.4c0 1.496.748 2.27 1.968 2.27s1.968-.748 1.968-2.204V4.218h2.021V9.4c0 2.782-1.562 4.146-4.028 4.146-2.467 0-3.949-1.39-3.949-4.093zm10.66-5.248h2.178l2.414 3.883 2.414-3.883H127v9.184h-2.014V7.393l-2.584 3.936h-.053l-2.558-3.883v5.956h-1.968l-.013-9.197zM39.005 17.98h3.582c2.886 0 4.88 1.969 4.88 4.593 0 2.584-1.967 4.592-4.88 4.592h-3.582V17.98zm2.02 1.825v5.536h1.562a2.623 2.623 0 002.768-2.742 2.623 2.623 0 00-2.768-2.768l-1.561-.026zm11.146-1.89h1.863l3.936 9.25h-2.112l-.84-2.06h-3.883l-.84 2.06h-2.06l3.936-9.25zm2.126 5.406l-1.22-2.985-1.247 2.985h2.467zm6.415-3.477h-2.795V17.98h7.61v1.863h-2.794v7.32h-2.02v-7.32zm8.685-1.929h1.863l3.936 9.25h-2.112l-.84-2.06h-3.883l-.84 2.06h-2.06l3.936-9.25zm2.113 5.406l-1.207-2.985-1.22 2.978 2.427.007zm5.379-5.341h4.264a3.312 3.312 0 012.4.814 2.12 2.12 0 01.657 1.561 2.131 2.131 0 01-1.207 1.968c1.062.407 1.718 1.024 1.718 2.257 0 1.68-1.364 2.52-3.437 2.52h-4.395v-9.12zm5.287 2.717c0-.604-.472-.945-1.312-.945h-1.968v1.968h1.798c.892 0 1.456-.289 1.456-.97l.026-.053zm-.984 2.676h-2.335v2.02h2.4c.893 0 1.43-.314 1.43-.997-.025-.642-.458-1.023-1.495-1.023zm8.495-5.458h1.863l3.936 9.25h-2.112l-.84-2.06h-3.883l-.84 2.06h-2.06l3.936-9.25zm2.159 5.406l-1.254-2.985-1.22 2.978 2.474.007zm4.427 2.505l1.194-1.43a4.218 4.218 0 002.742 1.116c.827 0 1.312-.328 1.312-.866 0-.512-.315-.774-1.85-1.168-1.85-.472-3.043-.984-3.043-2.808 0-1.666 1.312-2.768 3.214-2.768a5.314 5.314 0 013.411 1.168l-1.049 1.522a4.306 4.306 0 00-2.388-.912c-.774 0-1.181.354-1.181.8 0 .604.394.8 1.968 1.207 1.863.486 2.913 1.155 2.913 2.755 0 1.824-1.391 2.847-3.372 2.847a5.852 5.852 0 01-3.87-1.463zm9.414-7.846h6.927v1.798h-4.92v1.87h4.33v1.797h-4.33v1.929h4.986v1.797h-6.993v-9.19zm9.243 2.087a1.166 1.166 0 01-.201-2.314 1.167 1.167 0 11.201 2.314zm0-2.158a.996.996 0 00-.716 1.697.994.994 0 001.085.223 1 1 0 00.549-1.294.986.986 0 00-.905-.613l-.013-.013zm.321 1.666l-.347-.531h-.237v.53h-.183v-1.311h.544a.414.414 0 01.433.393.392.392 0 01-.341.394l.361.538-.23-.013zm-.223-1.174h-.361v.472h.361a.236.236 0 00.243-.23.252.252 0 00-.243-.242z" fill="#000"/></svg>