<svg width="113" height="18" fill="none" xmlns="http://www.w3.org/2000/svg"><path d="M11.805 14h3.142L9.737.479H6.129L.899 14H4.06l.851-2.331h6.041L11.805 14zM7.933 2.972l2.23 6.203h-4.48l2.25-6.203zM18.709 17.73v-4.987c.79 1.014 1.865 1.5 3.02 1.5 2.514 0 4.338-1.885 4.338-5.149 0-3.263-1.824-5.128-4.338-5.128-1.196 0-2.27.527-3.02 1.48V4.209h-2.575v13.52h2.575zm4.683-8.636c0 1.703-.994 2.859-2.474 2.859-.83 0-1.783-.507-2.21-1.115V7.37c.427-.628 1.38-1.115 2.21-1.115 1.48 0 2.474 1.156 2.474 2.838zM33.87 14h2.575V7.675c0-2.817-2.048-3.71-4.278-3.71-1.54 0-3.081.487-4.277 1.541l.973 1.723c.831-.77 1.804-1.155 2.858-1.155 1.298 0 2.149.649 2.149 1.642v1.358c-.649-.79-1.804-1.196-3.102-1.196-1.56 0-3.405.831-3.405 3.122 0 2.19 1.845 3.243 3.405 3.243 1.278 0 2.433-.466 3.102-1.257V14zm0-2.351c-.426.567-1.236.85-2.068.85-1.013 0-1.844-.526-1.844-1.438 0-.933.83-1.48 1.844-1.48.832 0 1.642.284 2.068.851v1.216zm4.5-2.555c0 3.02 2.169 5.15 5.19 5.15 2.006 0 3.222-.872 3.87-1.785L45.75 10.9a2.471 2.471 0 01-2.067 1.054c-1.561 0-2.656-1.156-2.656-2.859 0-1.702 1.095-2.838 2.656-2.838.892 0 1.601.386 2.067 1.054l1.683-1.56c-.649-.913-1.865-1.784-3.872-1.784-3.02 0-5.19 2.128-5.19 5.128zM55.744 14h2.574V7.047c0-1.906-1.034-3.081-3.183-3.081-1.601 0-2.817.77-3.446 1.52V.48h-2.574V14h2.574V7.412c.446-.588 1.237-1.156 2.23-1.156 1.115 0 1.825.426 1.825 1.784V14zm4.501-4.906c0 3.142 2.25 5.15 5.23 5.15 1.52 0 3.041-.447 4.034-1.359l-1.135-1.662c-.628.608-1.703.973-2.615.973-1.662 0-2.655-1.034-2.818-2.27h7.278v-.568c0-3.203-1.987-5.392-4.906-5.392-2.98 0-5.068 2.29-5.068 5.128zm5.068-3.08c1.703 0 2.352 1.236 2.412 2.168h-4.824c.122-.973.81-2.169 2.412-2.169z" fill="#231F20"/><path d="M77.326 14h2.878V9.155h3.447c2.919 0 4.54-1.966 4.54-4.318 0-2.371-1.601-4.358-4.54-4.358h-6.325V14zm7.926-9.183c0 1.135-.852 1.865-1.987 1.865h-3.06v-3.73h3.06c1.135 0 1.987.75 1.987 1.865zM98.239 14h3.446L96.78 7.047l4.6-6.568h-3.466l-3.061 4.622L91.752.479h-3.425l4.601 6.588L88.023 14h3.425l3.406-4.946L98.239 14zm4.723 0h2.878V8.365h6.548V5.89h-6.548V2.952h6.69V.48h-9.568V14z" fill="#34A0DC"/></svg>